<svg xmlns="http://www.w3.org/2000/svg" viewBox="0 0 900 1426" width="900">
  <defs>
    <style>
      @import url('https://fonts.googleapis.com/css2?family=JetBrains+Mono:wght@400;600&amp;family=Inter:wght@400;500;600&amp;display=swap');
      text { font-family: 'Inter', system-ui, sans-serif; }
      .mono { font-family: 'JetBrains Mono', monospace; }
    </style>
    <filter id="shadow" x="-5%" y="-5%" width="110%" height="130%">
      <feDropShadow dx="0" dy="2" stdDeviation="3" flood-color="#00000018"/>
    </filter>
  </defs>

  <!-- Background -->
  <rect width="900" height="1426" fill="#0f0f17" rx="16"/>

  <!-- Header -->
  <text x="20" y="30" fill="#ffffff" font-size="18" font-weight="600" letter-spacing="-0.5">
    🚀 Project Timeline
  </text>
  <text x="20" y="48" fill="#6366f1" font-size="11" class="mono">
    DeepakVishwakarma123 · Auto-generated on August 16, 2026
  </text>

  <!-- Grid lines (month markers) -->
  <line x1="187" y1="50" x2="187" y2="1386" stroke="#ffffff0a" stroke-width="1"/>
  <text x="187" y="45" fill="#ffffff30" font-size="9" text-anchor="middle" class="mono">Sep 24</text>
  <line x1="217" y1="50" x2="217" y2="1386" stroke="#ffffff0a" stroke-width="1"/>
  <text x="217" y="45" fill="#ffffff30" font-size="9" text-anchor="middle" class="mono">Oct 24</text>
  <line x1="248" y1="50" x2="248" y2="1386" stroke="#ffffff0a" stroke-width="1"/>
  <text x="248" y="45" fill="#ffffff30" font-size="9" text-anchor="middle" class="mono">Nov 24</text>
  <line x1="279" y1="50" x2="279" y2="1386" stroke="#ffffff0a" stroke-width="1"/>
  <text x="279" y="45" fill="#ffffff30" font-size="9" text-anchor="middle" class="mono">Dec 24</text>
  <line x1="310" y1="50" x2="310" y2="1386" stroke="#ffffff0a" stroke-width="1"/>
  <text x="310" y="45" fill="#ffffff30" font-size="9" text-anchor="middle" class="mono">Jan 25</text>
  <line x1="341" y1="50" x2="341" y2="1386" stroke="#ffffff0a" stroke-width="1"/>
  <text x="341" y="45" fill="#ffffff30" font-size="9" text-anchor="middle" class="mono">Feb 25</text>
  <line x1="369" y1="50" x2="369" y2="1386" stroke="#ffffff0a" stroke-width="1"/>
  <text x="369" y="45" fill="#ffffff30" font-size="9" text-anchor="middle" class="mono">Mar 25</text>
  <line x1="400" y1="50" x2="400" y2="1386" stroke="#ffffff0a" stroke-width="1"/>
  <text x="400" y="45" fill="#ffffff30" font-size="9" text-anchor="middle" class="mono">Apr 25</text>
  <line x1="431" y1="50" x2="431" y2="1386" stroke="#ffffff0a" stroke-width="1"/>
  <text x="431" y="45" fill="#ffffff30" font-size="9" text-anchor="middle" class="mono">May 25</text>
  <line x1="462" y1="50" x2="462" y2="1386" stroke="#ffffff0a" stroke-width="1"/>
  <text x="462" y="45" fill="#ffffff30" font-size="9" text-anchor="middle" class="mono">Jun 25</text>
  <line x1="492" y1="50" x2="492" y2="1386" stroke="#ffffff0a" stroke-width="1"/>
  <text x="492" y="45" fill="#ffffff30" font-size="9" text-anchor="middle" class="mono">Jul 25</text>
  <line x1="523" y1="50" x2="523" y2="1386" stroke="#ffffff0a" stroke-width="1"/>
  <text x="523" y="45" fill="#ffffff30" font-size="9" text-anchor="middle" class="mono">Aug 25</text>
  <line x1="555" y1="50" x2="555" y2="1386" stroke="#ffffff0a" stroke-width="1"/>
  <text x="555" y="45" fill="#ffffff30" font-size="9" text-anchor="middle" class="mono">Sep 25</text>
  <line x1="585" y1="50" x2="585" y2="1386" stroke="#ffffff0a" stroke-width="1"/>
  <text x="585" y="45" fill="#ffffff30" font-size="9" text-anchor="middle" class="mono">Oct 25</text>
  <line x1="616" y1="50" x2="616" y2="1386" stroke="#ffffff0a" stroke-width="1"/>
  <text x="616" y="45" fill="#ffffff30" font-size="9" text-anchor="middle" class="mono">Nov 25</text>
  <line x1="646" y1="50" x2="646" y2="1386" stroke="#ffffff0a" stroke-width="1"/>
  <text x="646" y="45" fill="#ffffff30" font-size="9" text-anchor="middle" class="mono">Dec 25</text>
  <line x1="677" y1="50" x2="677" y2="1386" stroke="#ffffff0a" stroke-width="1"/>
  <text x="677" y="45" fill="#ffffff30" font-size="9" text-anchor="middle" class="mono">Jan 26</text>
  <line x1="709" y1="50" x2="709" y2="1386" stroke="#ffffff0a" stroke-width="1"/>
  <text x="709" y="45" fill="#ffffff30" font-size="9" text-anchor="middle" class="mono">Feb 26</text>
  <line x1="737" y1="50" x2="737" y2="1386" stroke="#ffffff0a" stroke-width="1"/>
  <text x="737" y="45" fill="#ffffff30" font-size="9" text-anchor="middle" class="mono">Mar 26</text>
  <line x1="768" y1="50" x2="768" y2="1386" stroke="#ffffff0a" stroke-width="1"/>
  <text x="768" y="45" fill="#ffffff30" font-size="9" text-anchor="middle" class="mono">Apr 26</text>
  <line x1="798" y1="50" x2="798" y2="1386" stroke="#ffffff0a" stroke-width="1"/>
  <text x="798" y="45" fill="#ffffff30" font-size="9" text-anchor="middle" class="mono">May 26</text>
  <line x1="830" y1="50" x2="830" y2="1386" stroke="#ffffff0a" stroke-width="1"/>
  <text x="830" y="45" fill="#ffffff30" font-size="9" text-anchor="middle" class="mono">Jun 26</text>
  <line x1="860" y1="50" x2="860" y2="1386" stroke="#ffffff0a" stroke-width="1"/>
  <text x="860" y="45" fill="#ffffff30" font-size="9" text-anchor="middle" class="mono">Jul 26</text>
  <!-- Repo: Whack-a-Mole -->
  <!-- Row background on hover zone -->
  <rect x="0" y="62" width="900" height="68" fill="#ffffff04" rx="4"/>

  <!-- Repo name (left label) -->
  <text x="190" y="90" fill="#6366f1" font-size="12" font-weight="600" text-anchor="end">Whack-a-Mole</text>
  <text x="190" y="104" fill="#ffffff40" font-size="9" text-anchor="end" class="mono">CSS · 8 commits</text>

  <!-- Timeline track (faint line) -->
  <line x1="200" y1="96" x2="880" y2="96" stroke="#ffffff0a" stroke-width="1"/>

  <!-- Main bar (duration from start to tag/today) -->
  <rect x="215" y="91" width="691" height="10" fill="#6366f1" rx="5" opacity="0.5" filter="url(#shadow)"/>

  <!-- WIP dashed border -->
  <rect x="215" y="91" width="691" height="10" fill="none" stroke="#6366f1" stroke-width="1.5" stroke-dasharray="4 3" rx="5" opacity="0.9"/>

  <!-- Start dot -->
  <circle cx="215" cy="96" r="5" fill="#6366f1" stroke="#0f0f17" stroke-width="2"/>

  <!-- End dot / tag badge -->
  <!-- WIP badge -->
  <rect x="888" y="87" width="36" height="14" fill="#6366f133" rx="7" stroke="#6366f1" stroke-width="1" stroke-dasharray="3 2"/>
  <text x="906" y="100" fill="#6366f1" font-size="8" class="mono" text-anchor="middle">WIP</text>

  <!-- Start date label -->
  <text x="215" y="85" fill="#ffffff50" font-size="8" text-anchor="middle" class="mono">Sep 29, 2024</text>

  
  <!-- Repo: TrackerProgress -->
  <!-- Row background on hover zone -->
  <rect x="0" y="134" width="900" height="68" fill="transparent" rx="4"/>

  <!-- Repo name (left label) -->
  <text x="190" y="162" fill="#10b981" font-size="12" font-weight="600" text-anchor="end">TrackerProgress</text>
  <text x="190" y="176" fill="#ffffff40" font-size="9" text-anchor="end" class="mono">HTML · 18 commits</text>

  <!-- Timeline track (faint line) -->
  <line x1="200" y1="168" x2="880" y2="168" stroke="#ffffff0a" stroke-width="1"/>

  <!-- Main bar (duration from start to tag/today) -->
  <rect x="235" y="162" width="671" height="12" fill="#10b981" rx="6" opacity="0.5" filter="url(#shadow)"/>

  <!-- WIP dashed border -->
  <rect x="235" y="162" width="671" height="12" fill="none" stroke="#10b981" stroke-width="1.5" stroke-dasharray="4 3" rx="6" opacity="0.9"/>

  <!-- Start dot -->
  <circle cx="235" cy="168" r="5" fill="#10b981" stroke="#0f0f17" stroke-width="2"/>

  <!-- End dot / tag badge -->
  <!-- WIP badge -->
  <rect x="888" y="159" width="36" height="14" fill="#10b98133" rx="7" stroke="#10b981" stroke-width="1" stroke-dasharray="3 2"/>
  <text x="906" y="172" fill="#10b981" font-size="8" class="mono" text-anchor="middle">WIP</text>

  <!-- Start date label -->
  <text x="235" y="156" fill="#ffffff50" font-size="8" text-anchor="middle" class="mono">Oct 19, 2024</text>

  
  <!-- Repo: DeepakVishwakarma123 -->
  <!-- Row background on hover zone -->
  <rect x="0" y="206" width="900" height="68" fill="#ffffff04" rx="4"/>

  <!-- Repo name (left label) -->
  <text x="190" y="234" fill="#f59e0b" font-size="12" font-weight="600" text-anchor="end">DeepakVishwakarma123</text>
  <text x="190" y="248" fill="#ffffff40" font-size="9" text-anchor="end" class="mono">JavaScript · 38 commits</text>

  <!-- Timeline track (faint line) -->
  <line x1="200" y1="240" x2="880" y2="240" stroke="#ffffff0a" stroke-width="1"/>

  <!-- Main bar (duration from start to tag/today) -->
  <rect x="260" y="231.5" width="646" height="17" fill="#f59e0b" rx="8.5" opacity="0.5" filter="url(#shadow)"/>

  <!-- WIP dashed border -->
  <rect x="260" y="231.5" width="646" height="17" fill="none" stroke="#f59e0b" stroke-width="1.5" stroke-dasharray="4 3" rx="8.5" opacity="0.9"/>

  <!-- Start dot -->
  <circle cx="260" cy="240" r="5" fill="#f59e0b" stroke="#0f0f17" stroke-width="2"/>

  <!-- End dot / tag badge -->
  <!-- WIP badge -->
  <rect x="888" y="231" width="36" height="14" fill="#f59e0b33" rx="7" stroke="#f59e0b" stroke-width="1" stroke-dasharray="3 2"/>
  <text x="906" y="244" fill="#f59e0b" font-size="8" class="mono" text-anchor="middle">WIP</text>

  <!-- Start date label -->
  <text x="260" y="225.5" fill="#ffffff50" font-size="8" text-anchor="middle" class="mono">Nov 12, 2024</text>

  
  <!-- Repo: counterAssignment-react-js -->
  <!-- Row background on hover zone -->
  <rect x="0" y="278" width="900" height="68" fill="transparent" rx="4"/>

  <!-- Repo name (left label) -->
  <text x="190" y="306" fill="#ef4444" font-size="12" font-weight="600" text-anchor="end">counterAssignment-react-js</text>
  <text x="190" y="320" fill="#ffffff40" font-size="9" text-anchor="end" class="mono">HTML · 2 commits</text>

  <!-- Timeline track (faint line) -->
  <line x1="200" y1="312" x2="880" y2="312" stroke="#ffffff0a" stroke-width="1"/>

  <!-- Main bar (duration from start to tag/today) -->
  <rect x="260" y="308" width="646" height="8" fill="#ef4444" rx="4" opacity="0.5" filter="url(#shadow)"/>

  <!-- WIP dashed border -->
  <rect x="260" y="308" width="646" height="8" fill="none" stroke="#ef4444" stroke-width="1.5" stroke-dasharray="4 3" rx="4" opacity="0.9"/>

  <!-- Start dot -->
  <circle cx="260" cy="312" r="5" fill="#ef4444" stroke="#0f0f17" stroke-width="2"/>

  <!-- End dot / tag badge -->
  <!-- WIP badge -->
  <rect x="888" y="303" width="36" height="14" fill="#ef444433" rx="7" stroke="#ef4444" stroke-width="1" stroke-dasharray="3 2"/>
  <text x="906" y="316" fill="#ef4444" font-size="8" class="mono" text-anchor="middle">WIP</text>

  <!-- Start date label -->
  <text x="260" y="302" fill="#ffffff50" font-size="8" text-anchor="middle" class="mono">Nov 13, 2024</text>

  
  <!-- Repo: React-Routrer -->
  <!-- Row background on hover zone -->
  <rect x="0" y="350" width="900" height="68" fill="#ffffff04" rx="4"/>

  <!-- Repo name (left label) -->
  <text x="190" y="378" fill="#8b5cf6" font-size="12" font-weight="600" text-anchor="end">React-Routrer</text>
  <text x="190" y="392" fill="#ffffff40" font-size="9" text-anchor="end" class="mono">Unknown · 1 commits</text>

  <!-- Timeline track (faint line) -->
  <line x1="200" y1="384" x2="880" y2="384" stroke="#ffffff0a" stroke-width="1"/>

  <!-- Main bar (duration from start to tag/today) -->
  <rect x="265" y="380" width="641" height="8" fill="#8b5cf6" rx="4" opacity="0.5" filter="url(#shadow)"/>

  <!-- WIP dashed border -->
  <rect x="265" y="380" width="641" height="8" fill="none" stroke="#8b5cf6" stroke-width="1.5" stroke-dasharray="4 3" rx="4" opacity="0.9"/>

  <!-- Start dot -->
  <circle cx="265" cy="384" r="5" fill="#8b5cf6" stroke="#0f0f17" stroke-width="2"/>

  <!-- End dot / tag badge -->
  <!-- WIP badge -->
  <rect x="888" y="375" width="36" height="14" fill="#8b5cf633" rx="7" stroke="#8b5cf6" stroke-width="1" stroke-dasharray="3 2"/>
  <text x="906" y="388" fill="#8b5cf6" font-size="8" class="mono" text-anchor="middle">WIP</text>

  <!-- Start date label -->
  <text x="265" y="374" fill="#ffffff50" font-size="8" text-anchor="middle" class="mono">Nov 17, 2024</text>

  
  <!-- Repo: Random-Problem -->
  <!-- Row background on hover zone -->
  <rect x="0" y="422" width="900" height="68" fill="transparent" rx="4"/>

  <!-- Repo name (left label) -->
  <text x="190" y="450" fill="#06b6d4" font-size="12" font-weight="600" text-anchor="end">Random-Problem</text>
  <text x="190" y="464" fill="#ffffff40" font-size="9" text-anchor="end" class="mono">JavaScript · 7 commits</text>

  <!-- Timeline track (faint line) -->
  <line x1="200" y1="456" x2="880" y2="456" stroke="#ffffff0a" stroke-width="1"/>

  <!-- Main bar (duration from start to tag/today) -->
  <rect x="619" y="451" width="287" height="10" fill="#06b6d4" rx="5" opacity="0.5" filter="url(#shadow)"/>

  <!-- WIP dashed border -->
  <rect x="619" y="451" width="287" height="10" fill="none" stroke="#06b6d4" stroke-width="1.5" stroke-dasharray="4 3" rx="5" opacity="0.9"/>

  <!-- Start dot -->
  <circle cx="619" cy="456" r="5" fill="#06b6d4" stroke="#0f0f17" stroke-width="2"/>

  <!-- End dot / tag badge -->
  <!-- WIP badge -->
  <rect x="888" y="447" width="36" height="14" fill="#06b6d433" rx="7" stroke="#06b6d4" stroke-width="1" stroke-dasharray="3 2"/>
  <text x="906" y="460" fill="#06b6d4" font-size="8" class="mono" text-anchor="middle">WIP</text>

  <!-- Start date label -->
  <text x="619" y="445" fill="#ffffff50" font-size="8" text-anchor="middle" class="mono">Nov 4, 2025</text>

  
  <!-- Repo: RealTime-Portfolio -->
  <!-- Row background on hover zone -->
  <rect x="0" y="494" width="900" height="68" fill="#ffffff04" rx="4"/>

  <!-- Repo name (left label) -->
  <text x="190" y="522" fill="#ec4899" font-size="12" font-weight="600" text-anchor="end">RealTime-Portfolio</text>
  <text x="190" y="536" fill="#ffffff40" font-size="9" text-anchor="end" class="mono">JavaScript · 54 commits</text>

  <!-- Timeline track (faint line) -->
  <line x1="200" y1="528" x2="880" y2="528" stroke="#ffffff0a" stroke-width="1"/>

  <!-- Main bar (duration from start to tag/today) -->
  <rect x="633" y="518" width="273" height="20" fill="#ec4899" rx="10" opacity="0.5" filter="url(#shadow)"/>

  <!-- WIP dashed border -->
  <rect x="633" y="518" width="273" height="20" fill="none" stroke="#ec4899" stroke-width="1.5" stroke-dasharray="4 3" rx="10" opacity="0.9"/>

  <!-- Start dot -->
  <circle cx="633" cy="528" r="5" fill="#ec4899" stroke="#0f0f17" stroke-width="2"/>

  <!-- End dot / tag badge -->
  <!-- WIP badge -->
  <rect x="888" y="519" width="36" height="14" fill="#ec489933" rx="7" stroke="#ec4899" stroke-width="1" stroke-dasharray="3 2"/>
  <text x="906" y="532" fill="#ec4899" font-size="8" class="mono" text-anchor="middle">WIP</text>

  <!-- Start date label -->
  <text x="633" y="512" fill="#ffffff50" font-size="8" text-anchor="middle" class="mono">Nov 18, 2025</text>

  
  <!-- Repo: Backend-Dev-Journey -->
  <!-- Row background on hover zone -->
  <rect x="0" y="566" width="900" height="68" fill="transparent" rx="4"/>

  <!-- Repo name (left label) -->
  <text x="190" y="594" fill="#84cc16" font-size="12" font-weight="600" text-anchor="end">Backend-Dev-Journey</text>
  <text x="190" y="608" fill="#ffffff40" font-size="9" text-anchor="end" class="mono">JavaScript · 11 commits</text>

  <!-- Timeline track (faint line) -->
  <line x1="200" y1="600" x2="880" y2="600" stroke="#ffffff0a" stroke-width="1"/>

  <!-- Main bar (duration from start to tag/today) -->
  <rect x="671" y="595" width="235" height="10" fill="#84cc16" rx="5" opacity="0.5" filter="url(#shadow)"/>

  <!-- WIP dashed border -->
  <rect x="671" y="595" width="235" height="10" fill="none" stroke="#84cc16" stroke-width="1.5" stroke-dasharray="4 3" rx="5" opacity="0.9"/>

  <!-- Start dot -->
  <circle cx="671" cy="600" r="5" fill="#84cc16" stroke="#0f0f17" stroke-width="2"/>

  <!-- End dot / tag badge -->
  <!-- WIP badge -->
  <rect x="888" y="591" width="36" height="14" fill="#84cc1633" rx="7" stroke="#84cc16" stroke-width="1" stroke-dasharray="3 2"/>
  <text x="906" y="604" fill="#84cc16" font-size="8" class="mono" text-anchor="middle">WIP</text>

  <!-- Start date label -->
  <text x="671" y="589" fill="#ffffff50" font-size="8" text-anchor="middle" class="mono">Dec 25, 2025</text>

  
  <!-- Repo: BackendCamp -->
  <!-- Row background on hover zone -->
  <rect x="0" y="638" width="900" height="68" fill="#ffffff04" rx="4"/>

  <!-- Repo name (left label) -->
  <text x="190" y="666" fill="#6366f1" font-size="12" font-weight="600" text-anchor="end">BackendCamp</text>
  <text x="190" y="680" fill="#ffffff40" font-size="9" text-anchor="end" class="mono">JavaScript · 70 commits</text>

  <!-- Timeline track (faint line) -->
  <line x1="200" y1="672" x2="880" y2="672" stroke="#ffffff0a" stroke-width="1"/>

  <!-- Main bar (duration from start to tag/today) -->
  <rect x="679" y="660" width="227" height="24" fill="#6366f1" rx="12" opacity="0.5" filter="url(#shadow)"/>

  <!-- WIP dashed border -->
  <rect x="679" y="660" width="227" height="24" fill="none" stroke="#6366f1" stroke-width="1.5" stroke-dasharray="4 3" rx="12" opacity="0.9"/>

  <!-- Start dot -->
  <circle cx="679" cy="672" r="5" fill="#6366f1" stroke="#0f0f17" stroke-width="2"/>

  <!-- End dot / tag badge -->
  <!-- WIP badge -->
  <rect x="888" y="663" width="36" height="14" fill="#6366f133" rx="7" stroke="#6366f1" stroke-width="1" stroke-dasharray="3 2"/>
  <text x="906" y="676" fill="#6366f1" font-size="8" class="mono" text-anchor="middle">WIP</text>

  <!-- Start date label -->
  <text x="679" y="654" fill="#ffffff50" font-size="8" text-anchor="middle" class="mono">Jan 2, 2026</text>

  
  <!-- Repo: LeetcodeDaily -->
  <!-- Row background on hover zone -->
  <rect x="0" y="710" width="900" height="68" fill="transparent" rx="4"/>

  <!-- Repo name (left label) -->
  <text x="190" y="738" fill="#10b981" font-size="12" font-weight="600" text-anchor="end">LeetcodeDaily</text>
  <text x="190" y="752" fill="#ffffff40" font-size="9" text-anchor="end" class="mono">JavaScript · 8 commits</text>

  <!-- Timeline track (faint line) -->
  <line x1="200" y1="744" x2="880" y2="744" stroke="#ffffff0a" stroke-width="1"/>

  <!-- Main bar (duration from start to tag/today) -->
  <rect x="736" y="739" width="170" height="10" fill="#10b981" rx="5" opacity="0.5" filter="url(#shadow)"/>

  <!-- WIP dashed border -->
  <rect x="736" y="739" width="170" height="10" fill="none" stroke="#10b981" stroke-width="1.5" stroke-dasharray="4 3" rx="5" opacity="0.9"/>

  <!-- Start dot -->
  <circle cx="736" cy="744" r="5" fill="#10b981" stroke="#0f0f17" stroke-width="2"/>

  <!-- End dot / tag badge -->
  <!-- WIP badge -->
  <rect x="888" y="735" width="36" height="14" fill="#10b98133" rx="7" stroke="#10b981" stroke-width="1" stroke-dasharray="3 2"/>
  <text x="906" y="748" fill="#10b981" font-size="8" class="mono" text-anchor="middle">WIP</text>

  <!-- Start date label -->
  <text x="736" y="733" fill="#ffffff50" font-size="8" text-anchor="middle" class="mono">Mar 1, 2026</text>

  
  <!-- Repo: Fun2Read -->
  <!-- Row background on hover zone -->
  <rect x="0" y="782" width="900" height="68" fill="#ffffff04" rx="4"/>

  <!-- Repo name (left label) -->
  <text x="190" y="810" fill="#f59e0b" font-size="12" font-weight="600" text-anchor="end">Fun2Read</text>
  <text x="190" y="824" fill="#ffffff40" font-size="9" text-anchor="end" class="mono">JavaScript · 10 commits</text>

  <!-- Timeline track (faint line) -->
  <line x1="200" y1="816" x2="880" y2="816" stroke="#ffffff0a" stroke-width="1"/>

  <!-- Main bar (duration from start to tag/today) -->
  <rect x="738" y="811" width="168" height="10" fill="#f59e0b" rx="5" opacity="0.5" filter="url(#shadow)"/>

  <!-- WIP dashed border -->
  <rect x="738" y="811" width="168" height="10" fill="none" stroke="#f59e0b" stroke-width="1.5" stroke-dasharray="4 3" rx="5" opacity="0.9"/>

  <!-- Start dot -->
  <circle cx="738" cy="816" r="5" fill="#f59e0b" stroke="#0f0f17" stroke-width="2"/>

  <!-- End dot / tag badge -->
  <!-- WIP badge -->
  <rect x="888" y="807" width="36" height="14" fill="#f59e0b33" rx="7" stroke="#f59e0b" stroke-width="1" stroke-dasharray="3 2"/>
  <text x="906" y="820" fill="#f59e0b" font-size="8" class="mono" text-anchor="middle">WIP</text>

  <!-- Start date label -->
  <text x="738" y="805" fill="#ffffff50" font-size="8" text-anchor="middle" class="mono">Mar 2, 2026</text>

  
  <!-- Repo: camp90 -->
  <!-- Row background on hover zone -->
  <rect x="0" y="854" width="900" height="68" fill="transparent" rx="4"/>

  <!-- Repo name (left label) -->
  <text x="190" y="882" fill="#ef4444" font-size="12" font-weight="600" text-anchor="end">camp90</text>
  <text x="190" y="896" fill="#ffffff40" font-size="9" text-anchor="end" class="mono">HTML · 65 commits</text>

  <!-- Timeline track (faint line) -->
  <line x1="200" y1="888" x2="880" y2="888" stroke="#ffffff0a" stroke-width="1"/>

  <!-- Main bar (duration from start to tag/today) -->
  <rect x="774" y="876.5" width="132" height="23" fill="#ef4444" rx="11.5" opacity="0.5" filter="url(#shadow)"/>

  <!-- WIP dashed border -->
  <rect x="774" y="876.5" width="132" height="23" fill="none" stroke="#ef4444" stroke-width="1.5" stroke-dasharray="4 3" rx="11.5" opacity="0.9"/>

  <!-- Start dot -->
  <circle cx="774" cy="888" r="5" fill="#ef4444" stroke="#0f0f17" stroke-width="2"/>

  <!-- End dot / tag badge -->
  <!-- WIP badge -->
  <rect x="888" y="879" width="36" height="14" fill="#ef444433" rx="7" stroke="#ef4444" stroke-width="1" stroke-dasharray="3 2"/>
  <text x="906" y="892" fill="#ef4444" font-size="8" class="mono" text-anchor="middle">WIP</text>

  <!-- Start date label -->
  <text x="774" y="870.5" fill="#ffffff50" font-size="8" text-anchor="middle" class="mono">Apr 7, 2026</text>

  
  <!-- Repo: RandomNumberGen -->
  <!-- Row background on hover zone -->
  <rect x="0" y="926" width="900" height="68" fill="#ffffff04" rx="4"/>

  <!-- Repo name (left label) -->
  <text x="190" y="954" fill="#8b5cf6" font-size="12" font-weight="600" text-anchor="end">RandomNumberGen</text>
  <text x="190" y="968" fill="#ffffff40" font-size="9" text-anchor="end" class="mono">JavaScript · 3 commits</text>

  <!-- Timeline track (faint line) -->
  <line x1="200" y1="960" x2="880" y2="960" stroke="#ffffff0a" stroke-width="1"/>

  <!-- Main bar (duration from start to tag/today) -->
  <rect x="830" y="955.5" width="76" height="9" fill="#8b5cf6" rx="4.5" opacity="0.5" filter="url(#shadow)"/>

  <!-- WIP dashed border -->
  <rect x="830" y="955.5" width="76" height="9" fill="none" stroke="#8b5cf6" stroke-width="1.5" stroke-dasharray="4 3" rx="4.5" opacity="0.9"/>

  <!-- Start dot -->
  <circle cx="830" cy="960" r="5" fill="#8b5cf6" stroke="#0f0f17" stroke-width="2"/>

  <!-- End dot / tag badge -->
  <!-- WIP badge -->
  <rect x="888" y="951" width="36" height="14" fill="#8b5cf633" rx="7" stroke="#8b5cf6" stroke-width="1" stroke-dasharray="3 2"/>
  <text x="906" y="964" fill="#8b5cf6" font-size="8" class="mono" text-anchor="middle">WIP</text>

  <!-- Start date label -->
  <text x="830" y="949.5" fill="#ffffff50" font-size="8" text-anchor="middle" class="mono">Jun 2, 2026</text>

  
  <!-- Repo: Slack-Agent-Builder-Hackathon -->
  <!-- Row background on hover zone -->
  <rect x="0" y="998" width="900" height="68" fill="transparent" rx="4"/>

  <!-- Repo name (left label) -->
  <text x="190" y="1026" fill="#06b6d4" font-size="12" font-weight="600" text-anchor="end">Slack-Agent-Builder-Hackathon</text>
  <text x="190" y="1040" fill="#ffffff40" font-size="9" text-anchor="end" class="mono">Unknown · 1 commits</text>

  <!-- Timeline track (faint line) -->
  <line x1="200" y1="1032" x2="880" y2="1032" stroke="#ffffff0a" stroke-width="1"/>

  <!-- Main bar (duration from start to tag/today) -->
  <rect x="835" y="1028" width="71" height="8" fill="#06b6d4" rx="4" opacity="0.5" filter="url(#shadow)"/>

  <!-- WIP dashed border -->
  <rect x="835" y="1028" width="71" height="8" fill="none" stroke="#06b6d4" stroke-width="1.5" stroke-dasharray="4 3" rx="4" opacity="0.9"/>

  <!-- Start dot -->
  <circle cx="835" cy="1032" r="5" fill="#06b6d4" stroke="#0f0f17" stroke-width="2"/>

  <!-- End dot / tag badge -->
  <!-- WIP badge -->
  <rect x="888" y="1023" width="36" height="14" fill="#06b6d433" rx="7" stroke="#06b6d4" stroke-width="1" stroke-dasharray="3 2"/>
  <text x="906" y="1036" fill="#06b6d4" font-size="8" class="mono" text-anchor="middle">WIP</text>

  <!-- Start date label -->
  <text x="835" y="1022" fill="#ffffff50" font-size="8" text-anchor="middle" class="mono">Jun 7, 2026</text>

  
  <!-- Repo: Abba-Nahi-Maanenge -->
  <!-- Row background on hover zone -->
  <rect x="0" y="1070" width="900" height="68" fill="#ffffff04" rx="4"/>

  <!-- Repo name (left label) -->
  <text x="190" y="1098" fill="#ec4899" font-size="12" font-weight="600" text-anchor="end">Abba-Nahi-Maanenge</text>
  <text x="190" y="1112" fill="#ffffff40" font-size="9" text-anchor="end" class="mono">CSS · 89 commits</text>

  <!-- Timeline track (faint line) -->
  <line x1="200" y1="1104" x2="880" y2="1104" stroke="#ffffff0a" stroke-width="1"/>

  <!-- Main bar (duration from start to tag/today) -->
  <rect x="836" y="1090" width="70" height="28" fill="#ec4899" rx="14" opacity="0.5" filter="url(#shadow)"/>

  <!-- WIP dashed border -->
  <rect x="836" y="1090" width="70" height="28" fill="none" stroke="#ec4899" stroke-width="1.5" stroke-dasharray="4 3" rx="14" opacity="0.9"/>

  <!-- Start dot -->
  <circle cx="836" cy="1104" r="5" fill="#ec4899" stroke="#0f0f17" stroke-width="2"/>

  <!-- End dot / tag badge -->
  <!-- WIP badge -->
  <rect x="888" y="1095" width="36" height="14" fill="#ec489933" rx="7" stroke="#ec4899" stroke-width="1" stroke-dasharray="3 2"/>
  <text x="906" y="1108" fill="#ec4899" font-size="8" class="mono" text-anchor="middle">WIP</text>

  <!-- Start date label -->
  <text x="836" y="1084" fill="#ffffff50" font-size="8" text-anchor="middle" class="mono">Jun 7, 2026</text>

  
  <!-- Repo: Pufte -->
  <!-- Row background on hover zone -->
  <rect x="0" y="1142" width="900" height="68" fill="transparent" rx="4"/>

  <!-- Repo name (left label) -->
  <text x="190" y="1170" fill="#84cc16" font-size="12" font-weight="600" text-anchor="end">Pufte</text>
  <text x="190" y="1184" fill="#ffffff40" font-size="9" text-anchor="end" class="mono">Unknown · 1 commits</text>

  <!-- Timeline track (faint line) -->
  <line x1="200" y1="1176" x2="880" y2="1176" stroke="#ffffff0a" stroke-width="1"/>

  <!-- Main bar (duration from start to tag/today) -->
  <rect x="854" y="1172" width="52" height="8" fill="#84cc16" rx="4" opacity="0.5" filter="url(#shadow)"/>

  <!-- WIP dashed border -->
  <rect x="854" y="1172" width="52" height="8" fill="none" stroke="#84cc16" stroke-width="1.5" stroke-dasharray="4 3" rx="4" opacity="0.9"/>

  <!-- Start dot -->
  <circle cx="854" cy="1176" r="5" fill="#84cc16" stroke="#0f0f17" stroke-width="2"/>

  <!-- End dot / tag badge -->
  <!-- WIP badge -->
  <rect x="888" y="1167" width="36" height="14" fill="#84cc1633" rx="7" stroke="#84cc16" stroke-width="1" stroke-dasharray="3 2"/>
  <text x="906" y="1180" fill="#84cc16" font-size="8" class="mono" text-anchor="middle">WIP</text>

  <!-- Start date label -->
  <text x="854" y="1166" fill="#ffffff50" font-size="8" text-anchor="middle" class="mono">Jun 26, 2026</text>

  
  <!-- Repo: Panic-Key -->
  <!-- Row background on hover zone -->
  <rect x="0" y="1214" width="900" height="68" fill="#ffffff04" rx="4"/>

  <!-- Repo name (left label) -->
  <text x="190" y="1242" fill="#6366f1" font-size="12" font-weight="600" text-anchor="end">Panic-Key</text>
  <text x="190" y="1256" fill="#ffffff40" font-size="9" text-anchor="end" class="mono">CSS · 3 commits</text>

  <!-- Timeline track (faint line) -->
  <line x1="200" y1="1248" x2="880" y2="1248" stroke="#ffffff0a" stroke-width="1"/>

  <!-- Main bar (duration from start to tag/today) -->
  <rect x="860" y="1243.5" width="6" height="9" fill="#6366f1" rx="4.5" opacity="0.85" filter="url(#shadow)"/>

  

  <!-- Start dot -->
  <circle cx="860" cy="1248" r="5" fill="#6366f1" stroke="#0f0f17" stroke-width="2"/>

  <!-- End dot / tag badge -->
  <circle cx="860" cy="1248" r="7" fill="#6366f1" stroke="#0f0f17" stroke-width="2"/>
  <text x="860" y="1252" fill="#0f0f17" font-size="7" font-weight="700" text-anchor="middle" class="mono">✓</text>
  <!-- Tag label -->
  <rect x="870" y="1238" width="34" height="16" fill="#6366f122" rx="8"/>
  <text x="887" y="1252" fill="#6366f1" font-size="9" class="mono" text-anchor="middle">v1.1</text>

  <!-- Start date label -->
  <text x="860" y="1237.5" fill="#ffffff50" font-size="8" text-anchor="middle" class="mono">Jul 1, 2026</text>

  <text x="860" y="1266.5" fill="#6366f1aa" font-size="8" text-anchor="middle" class="mono">Jul 1, 2026</text>
  <!-- Repo: secret-share-link -->
  <!-- Row background on hover zone -->
  <rect x="0" y="1286" width="900" height="68" fill="transparent" rx="4"/>

  <!-- Repo name (left label) -->
  <text x="190" y="1314" fill="#10b981" font-size="12" font-weight="600" text-anchor="end">secret-share-link</text>
  <text x="190" y="1328" fill="#ffffff40" font-size="9" text-anchor="end" class="mono">JavaScript · 40 commits</text>

  <!-- Timeline track (faint line) -->
  <line x1="200" y1="1320" x2="880" y2="1320" stroke="#ffffff0a" stroke-width="1"/>

  <!-- Main bar (duration from start to tag/today) -->
  <rect x="865" y="1311.5" width="41" height="17" fill="#10b981" rx="8.5" opacity="0.5" filter="url(#shadow)"/>

  <!-- WIP dashed border -->
  <rect x="865" y="1311.5" width="41" height="17" fill="none" stroke="#10b981" stroke-width="1.5" stroke-dasharray="4 3" rx="8.5" opacity="0.9"/>

  <!-- Start dot -->
  <circle cx="865" cy="1320" r="5" fill="#10b981" stroke="#0f0f17" stroke-width="2"/>

  <!-- End dot / tag badge -->
  <!-- WIP badge -->
  <rect x="888" y="1311" width="36" height="14" fill="#10b98133" rx="7" stroke="#10b981" stroke-width="1" stroke-dasharray="3 2"/>
  <text x="906" y="1324" fill="#10b981" font-size="8" class="mono" text-anchor="middle">WIP</text>

  <!-- Start date label -->
  <text x="865" y="1305.5" fill="#ffffff50" font-size="8" text-anchor="middle" class="mono">Jul 6, 2026</text>

  
  <!-- Legend -->
  <circle cx="210" cy="1401" r="5" fill="#6366f1" stroke="#0f0f17" stroke-width="2"/>
  <text x="220" y="1405" fill="#ffffff50" font-size="10">Start date</text>

  <circle cx="300" cy="1401" r="7" fill="#10b981" stroke="#0f0f17" stroke-width="2"/>
  <text x="315" y="1405" fill="#ffffff50" font-size="10">First tag (shipped 🚀)</text>

  <rect x="460" y="1395" width="30" height="10" fill="#ef444455" stroke="#ef4444" stroke-width="1" stroke-dasharray="3 2" rx="5"/>
  <text x="498" y="1405" fill="#ffffff50" font-size="10">Work In Progress</text>

  <text x="880" y="1405" fill="#ffffff20" font-size="9" class="mono" text-anchor="end">Bar height = commit count</text>
</svg>