<svg xmlns="http://www.w3.org/2000/svg" viewBox="0 0 900 1570" width="900">
  <defs>
    <style>
      @import url('https://fonts.googleapis.com/css2?family=JetBrains+Mono:wght@400;600&amp;family=Inter:wght@400;500;600&amp;display=swap');
      text { font-family: 'Inter', system-ui, sans-serif; }
      .mono { font-family: 'JetBrains Mono', monospace; }
    </style>
    <filter id="shadow" x="-5%" y="-5%" width="110%" height="130%">
      <feDropShadow dx="0" dy="2" stdDeviation="3" flood-color="#00000018"/>
    </filter>
  </defs>

  <!-- Background -->
  <rect width="900" height="1570" fill="#0f0f17" rx="16"/>

  <!-- Header -->
  <text x="20" y="30" fill="#ffffff" font-size="18" font-weight="600" letter-spacing="-0.5">
    🚀 Project Timeline
  </text>
  <text x="20" y="48" fill="#6366f1" font-size="11" class="mono">
    DeepakVishwakarma123 · Auto-generated on June 21, 2026
  </text>

  <!-- Grid lines (month markers) -->
  <line x1="187" y1="50" x2="187" y2="1530" stroke="#ffffff0a" stroke-width="1"/>
  <text x="187" y="45" fill="#ffffff30" font-size="9" text-anchor="middle" class="mono">Sep 24</text>
  <line x1="218" y1="50" x2="218" y2="1530" stroke="#ffffff0a" stroke-width="1"/>
  <text x="218" y="45" fill="#ffffff30" font-size="9" text-anchor="middle" class="mono">Oct 24</text>
  <line x1="250" y1="50" x2="250" y2="1530" stroke="#ffffff0a" stroke-width="1"/>
  <text x="250" y="45" fill="#ffffff30" font-size="9" text-anchor="middle" class="mono">Nov 24</text>
  <line x1="281" y1="50" x2="281" y2="1530" stroke="#ffffff0a" stroke-width="1"/>
  <text x="281" y="45" fill="#ffffff30" font-size="9" text-anchor="middle" class="mono">Dec 24</text>
  <line x1="313" y1="50" x2="313" y2="1530" stroke="#ffffff0a" stroke-width="1"/>
  <text x="313" y="45" fill="#ffffff30" font-size="9" text-anchor="middle" class="mono">Jan 25</text>
  <line x1="345" y1="50" x2="345" y2="1530" stroke="#ffffff0a" stroke-width="1"/>
  <text x="345" y="45" fill="#ffffff30" font-size="9" text-anchor="middle" class="mono">Feb 25</text>
  <line x1="374" y1="50" x2="374" y2="1530" stroke="#ffffff0a" stroke-width="1"/>
  <text x="374" y="45" fill="#ffffff30" font-size="9" text-anchor="middle" class="mono">Mar 25</text>
  <line x1="406" y1="50" x2="406" y2="1530" stroke="#ffffff0a" stroke-width="1"/>
  <text x="406" y="45" fill="#ffffff30" font-size="9" text-anchor="middle" class="mono">Apr 25</text>
  <line x1="437" y1="50" x2="437" y2="1530" stroke="#ffffff0a" stroke-width="1"/>
  <text x="437" y="45" fill="#ffffff30" font-size="9" text-anchor="middle" class="mono">May 25</text>
  <line x1="469" y1="50" x2="469" y2="1530" stroke="#ffffff0a" stroke-width="1"/>
  <text x="469" y="45" fill="#ffffff30" font-size="9" text-anchor="middle" class="mono">Jun 25</text>
  <line x1="500" y1="50" x2="500" y2="1530" stroke="#ffffff0a" stroke-width="1"/>
  <text x="500" y="45" fill="#ffffff30" font-size="9" text-anchor="middle" class="mono">Jul 25</text>
  <line x1="532" y1="50" x2="532" y2="1530" stroke="#ffffff0a" stroke-width="1"/>
  <text x="532" y="45" fill="#ffffff30" font-size="9" text-anchor="middle" class="mono">Aug 25</text>
  <line x1="564" y1="50" x2="564" y2="1530" stroke="#ffffff0a" stroke-width="1"/>
  <text x="564" y="45" fill="#ffffff30" font-size="9" text-anchor="middle" class="mono">Sep 25</text>
  <line x1="596" y1="50" x2="596" y2="1530" stroke="#ffffff0a" stroke-width="1"/>
  <text x="596" y="45" fill="#ffffff30" font-size="9" text-anchor="middle" class="mono">Oct 25</text>
  <line x1="628" y1="50" x2="628" y2="1530" stroke="#ffffff0a" stroke-width="1"/>
  <text x="628" y="45" fill="#ffffff30" font-size="9" text-anchor="middle" class="mono">Nov 25</text>
  <line x1="659" y1="50" x2="659" y2="1530" stroke="#ffffff0a" stroke-width="1"/>
  <text x="659" y="45" fill="#ffffff30" font-size="9" text-anchor="middle" class="mono">Dec 25</text>
  <line x1="691" y1="50" x2="691" y2="1530" stroke="#ffffff0a" stroke-width="1"/>
  <text x="691" y="45" fill="#ffffff30" font-size="9" text-anchor="middle" class="mono">Jan 26</text>
  <line x1="723" y1="50" x2="723" y2="1530" stroke="#ffffff0a" stroke-width="1"/>
  <text x="723" y="45" fill="#ffffff30" font-size="9" text-anchor="middle" class="mono">Feb 26</text>
  <line x1="752" y1="50" x2="752" y2="1530" stroke="#ffffff0a" stroke-width="1"/>
  <text x="752" y="45" fill="#ffffff30" font-size="9" text-anchor="middle" class="mono">Mar 26</text>
  <line x1="784" y1="50" x2="784" y2="1530" stroke="#ffffff0a" stroke-width="1"/>
  <text x="784" y="45" fill="#ffffff30" font-size="9" text-anchor="middle" class="mono">Apr 26</text>
  <line x1="815" y1="50" x2="815" y2="1530" stroke="#ffffff0a" stroke-width="1"/>
  <text x="815" y="45" fill="#ffffff30" font-size="9" text-anchor="middle" class="mono">May 26</text>
  <line x1="847" y1="50" x2="847" y2="1530" stroke="#ffffff0a" stroke-width="1"/>
  <text x="847" y="45" fill="#ffffff30" font-size="9" text-anchor="middle" class="mono">Jun 26</text>
  <line x1="878" y1="50" x2="878" y2="1530" stroke="#ffffff0a" stroke-width="1"/>
  <text x="878" y="45" fill="#ffffff30" font-size="9" text-anchor="middle" class="mono">Jul 26</text>
  <!-- Repo: Whack-a-Mole -->
  <!-- Row background on hover zone -->
  <rect x="0" y="62" width="900" height="68" fill="#ffffff04" rx="4"/>

  <!-- Repo name (left label) -->
  <text x="190" y="90" fill="#6366f1" font-size="12" font-weight="600" text-anchor="end">Whack-a-Mole</text>
  <text x="190" y="104" fill="#ffffff40" font-size="9" text-anchor="end" class="mono">CSS · 8 commits</text>

  <!-- Timeline track (faint line) -->
  <line x1="200" y1="96" x2="880" y2="96" stroke="#ffffff0a" stroke-width="1"/>

  <!-- Main bar (duration from start to tag/today) -->
  <rect x="216" y="91" width="652" height="10" fill="#6366f1" rx="5" opacity="0.5" filter="url(#shadow)"/>

  <!-- WIP dashed border -->
  <rect x="216" y="91" width="652" height="10" fill="none" stroke="#6366f1" stroke-width="1.5" stroke-dasharray="4 3" rx="5" opacity="0.9"/>

  <!-- Start dot -->
  <circle cx="216" cy="96" r="5" fill="#6366f1" stroke="#0f0f17" stroke-width="2"/>

  <!-- End dot / tag badge -->
  <!-- WIP badge -->
  <rect x="850" y="87" width="36" height="14" fill="#6366f133" rx="7" stroke="#6366f1" stroke-width="1" stroke-dasharray="3 2"/>
  <text x="868" y="100" fill="#6366f1" font-size="8" class="mono" text-anchor="middle">WIP</text>

  <!-- Start date label -->
  <text x="216" y="85" fill="#ffffff50" font-size="8" text-anchor="middle" class="mono">Sep 29, 2024</text>

  
  <!-- Repo: TrackerProgress -->
  <!-- Row background on hover zone -->
  <rect x="0" y="134" width="900" height="68" fill="transparent" rx="4"/>

  <!-- Repo name (left label) -->
  <text x="190" y="162" fill="#10b981" font-size="12" font-weight="600" text-anchor="end">TrackerProgress</text>
  <text x="190" y="176" fill="#ffffff40" font-size="9" text-anchor="end" class="mono">HTML · 18 commits</text>

  <!-- Timeline track (faint line) -->
  <line x1="200" y1="168" x2="880" y2="168" stroke="#ffffff0a" stroke-width="1"/>

  <!-- Main bar (duration from start to tag/today) -->
  <rect x="236" y="161" width="632" height="14" fill="#10b981" rx="7" opacity="0.5" filter="url(#shadow)"/>

  <!-- WIP dashed border -->
  <rect x="236" y="161" width="632" height="14" fill="none" stroke="#10b981" stroke-width="1.5" stroke-dasharray="4 3" rx="7" opacity="0.9"/>

  <!-- Start dot -->
  <circle cx="236" cy="168" r="5" fill="#10b981" stroke="#0f0f17" stroke-width="2"/>

  <!-- End dot / tag badge -->
  <!-- WIP badge -->
  <rect x="850" y="159" width="36" height="14" fill="#10b98133" rx="7" stroke="#10b981" stroke-width="1" stroke-dasharray="3 2"/>
  <text x="868" y="172" fill="#10b981" font-size="8" class="mono" text-anchor="middle">WIP</text>

  <!-- Start date label -->
  <text x="236" y="155" fill="#ffffff50" font-size="8" text-anchor="middle" class="mono">Oct 19, 2024</text>

  
  <!-- Repo: DeepakVishwakarma123 -->
  <!-- Row background on hover zone -->
  <rect x="0" y="206" width="900" height="68" fill="#ffffff04" rx="4"/>

  <!-- Repo name (left label) -->
  <text x="190" y="234" fill="#f59e0b" font-size="12" font-weight="600" text-anchor="end">DeepakVishwakarma123</text>
  <text x="190" y="248" fill="#ffffff40" font-size="9" text-anchor="end" class="mono">JavaScript · 14 commits</text>

  <!-- Timeline track (faint line) -->
  <line x1="200" y1="240" x2="880" y2="240" stroke="#ffffff0a" stroke-width="1"/>

  <!-- Main bar (duration from start to tag/today) -->
  <rect x="261" y="234" width="607" height="12" fill="#f59e0b" rx="6" opacity="0.5" filter="url(#shadow)"/>

  <!-- WIP dashed border -->
  <rect x="261" y="234" width="607" height="12" fill="none" stroke="#f59e0b" stroke-width="1.5" stroke-dasharray="4 3" rx="6" opacity="0.9"/>

  <!-- Start dot -->
  <circle cx="261" cy="240" r="5" fill="#f59e0b" stroke="#0f0f17" stroke-width="2"/>

  <!-- End dot / tag badge -->
  <!-- WIP badge -->
  <rect x="850" y="231" width="36" height="14" fill="#f59e0b33" rx="7" stroke="#f59e0b" stroke-width="1" stroke-dasharray="3 2"/>
  <text x="868" y="244" fill="#f59e0b" font-size="8" class="mono" text-anchor="middle">WIP</text>

  <!-- Start date label -->
  <text x="261" y="228" fill="#ffffff50" font-size="8" text-anchor="middle" class="mono">Nov 12, 2024</text>

  
  <!-- Repo: counterAssignment-react-js -->
  <!-- Row background on hover zone -->
  <rect x="0" y="278" width="900" height="68" fill="transparent" rx="4"/>

  <!-- Repo name (left label) -->
  <text x="190" y="306" fill="#ef4444" font-size="12" font-weight="600" text-anchor="end">counterAssignment-react-js</text>
  <text x="190" y="320" fill="#ffffff40" font-size="9" text-anchor="end" class="mono">HTML · 2 commits</text>

  <!-- Timeline track (faint line) -->
  <line x1="200" y1="312" x2="880" y2="312" stroke="#ffffff0a" stroke-width="1"/>

  <!-- Main bar (duration from start to tag/today) -->
  <rect x="262" y="307.5" width="606" height="9" fill="#ef4444" rx="4.5" opacity="0.5" filter="url(#shadow)"/>

  <!-- WIP dashed border -->
  <rect x="262" y="307.5" width="606" height="9" fill="none" stroke="#ef4444" stroke-width="1.5" stroke-dasharray="4 3" rx="4.5" opacity="0.9"/>

  <!-- Start dot -->
  <circle cx="262" cy="312" r="5" fill="#ef4444" stroke="#0f0f17" stroke-width="2"/>

  <!-- End dot / tag badge -->
  <!-- WIP badge -->
  <rect x="850" y="303" width="36" height="14" fill="#ef444433" rx="7" stroke="#ef4444" stroke-width="1" stroke-dasharray="3 2"/>
  <text x="868" y="316" fill="#ef4444" font-size="8" class="mono" text-anchor="middle">WIP</text>

  <!-- Start date label -->
  <text x="262" y="301.5" fill="#ffffff50" font-size="8" text-anchor="middle" class="mono">Nov 13, 2024</text>

  
  <!-- Repo: React-Routrer -->
  <!-- Row background on hover zone -->
  <rect x="0" y="350" width="900" height="68" fill="#ffffff04" rx="4"/>

  <!-- Repo name (left label) -->
  <text x="190" y="378" fill="#8b5cf6" font-size="12" font-weight="600" text-anchor="end">React-Routrer</text>
  <text x="190" y="392" fill="#ffffff40" font-size="9" text-anchor="end" class="mono">Unknown · 1 commits</text>

  <!-- Timeline track (faint line) -->
  <line x1="200" y1="384" x2="880" y2="384" stroke="#ffffff0a" stroke-width="1"/>

  <!-- Main bar (duration from start to tag/today) -->
  <rect x="266" y="380" width="602" height="8" fill="#8b5cf6" rx="4" opacity="0.5" filter="url(#shadow)"/>

  <!-- WIP dashed border -->
  <rect x="266" y="380" width="602" height="8" fill="none" stroke="#8b5cf6" stroke-width="1.5" stroke-dasharray="4 3" rx="4" opacity="0.9"/>

  <!-- Start dot -->
  <circle cx="266" cy="384" r="5" fill="#8b5cf6" stroke="#0f0f17" stroke-width="2"/>

  <!-- End dot / tag badge -->
  <!-- WIP badge -->
  <rect x="850" y="375" width="36" height="14" fill="#8b5cf633" rx="7" stroke="#8b5cf6" stroke-width="1" stroke-dasharray="3 2"/>
  <text x="868" y="388" fill="#8b5cf6" font-size="8" class="mono" text-anchor="middle">WIP</text>

  <!-- Start date label -->
  <text x="266" y="374" fill="#ffffff50" font-size="8" text-anchor="middle" class="mono">Nov 17, 2024</text>

  
  <!-- Repo: Random-Problem -->
  <!-- Row background on hover zone -->
  <rect x="0" y="422" width="900" height="68" fill="transparent" rx="4"/>

  <!-- Repo name (left label) -->
  <text x="190" y="450" fill="#06b6d4" font-size="12" font-weight="600" text-anchor="end">Random-Problem</text>
  <text x="190" y="464" fill="#ffffff40" font-size="9" text-anchor="end" class="mono">JavaScript · 7 commits</text>

  <!-- Timeline track (faint line) -->
  <line x1="200" y1="456" x2="880" y2="456" stroke="#ffffff0a" stroke-width="1"/>

  <!-- Main bar (duration from start to tag/today) -->
  <rect x="631" y="451" width="237" height="10" fill="#06b6d4" rx="5" opacity="0.5" filter="url(#shadow)"/>

  <!-- WIP dashed border -->
  <rect x="631" y="451" width="237" height="10" fill="none" stroke="#06b6d4" stroke-width="1.5" stroke-dasharray="4 3" rx="5" opacity="0.9"/>

  <!-- Start dot -->
  <circle cx="631" cy="456" r="5" fill="#06b6d4" stroke="#0f0f17" stroke-width="2"/>

  <!-- End dot / tag badge -->
  <!-- WIP badge -->
  <rect x="850" y="447" width="36" height="14" fill="#06b6d433" rx="7" stroke="#06b6d4" stroke-width="1" stroke-dasharray="3 2"/>
  <text x="868" y="460" fill="#06b6d4" font-size="8" class="mono" text-anchor="middle">WIP</text>

  <!-- Start date label -->
  <text x="631" y="445" fill="#ffffff50" font-size="8" text-anchor="middle" class="mono">Nov 4, 2025</text>

  
  <!-- Repo: RealTime-Portfolio -->
  <!-- Row background on hover zone -->
  <rect x="0" y="494" width="900" height="68" fill="#ffffff04" rx="4"/>

  <!-- Repo name (left label) -->
  <text x="190" y="522" fill="#ec4899" font-size="12" font-weight="600" text-anchor="end">RealTime-Portfolio</text>
  <text x="190" y="536" fill="#ffffff40" font-size="9" text-anchor="end" class="mono">JavaScript · 54 commits</text>

  <!-- Timeline track (faint line) -->
  <line x1="200" y1="528" x2="880" y2="528" stroke="#ffffff0a" stroke-width="1"/>

  <!-- Main bar (duration from start to tag/today) -->
  <rect x="645" y="515.5" width="223" height="25" fill="#ec4899" rx="12.5" opacity="0.5" filter="url(#shadow)"/>

  <!-- WIP dashed border -->
  <rect x="645" y="515.5" width="223" height="25" fill="none" stroke="#ec4899" stroke-width="1.5" stroke-dasharray="4 3" rx="12.5" opacity="0.9"/>

  <!-- Start dot -->
  <circle cx="645" cy="528" r="5" fill="#ec4899" stroke="#0f0f17" stroke-width="2"/>

  <!-- End dot / tag badge -->
  <!-- WIP badge -->
  <rect x="850" y="519" width="36" height="14" fill="#ec489933" rx="7" stroke="#ec4899" stroke-width="1" stroke-dasharray="3 2"/>
  <text x="868" y="532" fill="#ec4899" font-size="8" class="mono" text-anchor="middle">WIP</text>

  <!-- Start date label -->
  <text x="645" y="509.5" fill="#ffffff50" font-size="8" text-anchor="middle" class="mono">Nov 18, 2025</text>

  
  <!-- Repo: Backend-Dev-Journey -->
  <!-- Row background on hover zone -->
  <rect x="0" y="566" width="900" height="68" fill="transparent" rx="4"/>

  <!-- Repo name (left label) -->
  <text x="190" y="594" fill="#84cc16" font-size="12" font-weight="600" text-anchor="end">Backend-Dev-Journey</text>
  <text x="190" y="608" fill="#ffffff40" font-size="9" text-anchor="end" class="mono">JavaScript · 11 commits</text>

  <!-- Timeline track (faint line) -->
  <line x1="200" y1="600" x2="880" y2="600" stroke="#ffffff0a" stroke-width="1"/>

  <!-- Main bar (duration from start to tag/today) -->
  <rect x="684" y="594.5" width="184" height="11" fill="#84cc16" rx="5.5" opacity="0.5" filter="url(#shadow)"/>

  <!-- WIP dashed border -->
  <rect x="684" y="594.5" width="184" height="11" fill="none" stroke="#84cc16" stroke-width="1.5" stroke-dasharray="4 3" rx="5.5" opacity="0.9"/>

  <!-- Start dot -->
  <circle cx="684" cy="600" r="5" fill="#84cc16" stroke="#0f0f17" stroke-width="2"/>

  <!-- End dot / tag badge -->
  <!-- WIP badge -->
  <rect x="850" y="591" width="36" height="14" fill="#84cc1633" rx="7" stroke="#84cc16" stroke-width="1" stroke-dasharray="3 2"/>
  <text x="868" y="604" fill="#84cc16" font-size="8" class="mono" text-anchor="middle">WIP</text>

  <!-- Start date label -->
  <text x="684" y="588.5" fill="#ffffff50" font-size="8" text-anchor="middle" class="mono">Dec 25, 2025</text>

  
  <!-- Repo: Building-A-Server-From-Scratch -->
  <!-- Row background on hover zone -->
  <rect x="0" y="638" width="900" height="68" fill="#ffffff04" rx="4"/>

  <!-- Repo name (left label) -->
  <text x="190" y="666" fill="#6366f1" font-size="12" font-weight="600" text-anchor="end">Building-A-Server-From-Scratch</text>
  <text x="190" y="680" fill="#ffffff40" font-size="9" text-anchor="end" class="mono">Unknown · 1 commits</text>

  <!-- Timeline track (faint line) -->
  <line x1="200" y1="672" x2="880" y2="672" stroke="#ffffff0a" stroke-width="1"/>

  <!-- Main bar (duration from start to tag/today) -->
  <rect x="686" y="668" width="182" height="8" fill="#6366f1" rx="4" opacity="0.5" filter="url(#shadow)"/>

  <!-- WIP dashed border -->
  <rect x="686" y="668" width="182" height="8" fill="none" stroke="#6366f1" stroke-width="1.5" stroke-dasharray="4 3" rx="4" opacity="0.9"/>

  <!-- Start dot -->
  <circle cx="686" cy="672" r="5" fill="#6366f1" stroke="#0f0f17" stroke-width="2"/>

  <!-- End dot / tag badge -->
  <!-- WIP badge -->
  <rect x="850" y="663" width="36" height="14" fill="#6366f133" rx="7" stroke="#6366f1" stroke-width="1" stroke-dasharray="3 2"/>
  <text x="868" y="676" fill="#6366f1" font-size="8" class="mono" text-anchor="middle">WIP</text>

  <!-- Start date label -->
  <text x="686" y="662" fill="#ffffff50" font-size="8" text-anchor="middle" class="mono">Dec 28, 2025</text>

  
  <!-- Repo: BackendCamp -->
  <!-- Row background on hover zone -->
  <rect x="0" y="710" width="900" height="68" fill="transparent" rx="4"/>

  <!-- Repo name (left label) -->
  <text x="190" y="738" fill="#10b981" font-size="12" font-weight="600" text-anchor="end">BackendCamp</text>
  <text x="190" y="752" fill="#ffffff40" font-size="9" text-anchor="end" class="mono">JavaScript · 64 commits</text>

  <!-- Timeline track (faint line) -->
  <line x1="200" y1="744" x2="880" y2="744" stroke="#ffffff0a" stroke-width="1"/>

  <!-- Main bar (duration from start to tag/today) -->
  <rect x="692" y="730" width="176" height="28" fill="#10b981" rx="14" opacity="0.5" filter="url(#shadow)"/>

  <!-- WIP dashed border -->
  <rect x="692" y="730" width="176" height="28" fill="none" stroke="#10b981" stroke-width="1.5" stroke-dasharray="4 3" rx="14" opacity="0.9"/>

  <!-- Start dot -->
  <circle cx="692" cy="744" r="5" fill="#10b981" stroke="#0f0f17" stroke-width="2"/>

  <!-- End dot / tag badge -->
  <!-- WIP badge -->
  <rect x="850" y="735" width="36" height="14" fill="#10b98133" rx="7" stroke="#10b981" stroke-width="1" stroke-dasharray="3 2"/>
  <text x="868" y="748" fill="#10b981" font-size="8" class="mono" text-anchor="middle">WIP</text>

  <!-- Start date label -->
  <text x="692" y="724" fill="#ffffff50" font-size="8" text-anchor="middle" class="mono">Jan 2, 2026</text>

  
  <!-- Repo: LeetcodeDaily -->
  <!-- Row background on hover zone -->
  <rect x="0" y="782" width="900" height="68" fill="#ffffff04" rx="4"/>

  <!-- Repo name (left label) -->
  <text x="190" y="810" fill="#f59e0b" font-size="12" font-weight="600" text-anchor="end">LeetcodeDaily</text>
  <text x="190" y="824" fill="#ffffff40" font-size="9" text-anchor="end" class="mono">JavaScript · 8 commits</text>

  <!-- Timeline track (faint line) -->
  <line x1="200" y1="816" x2="880" y2="816" stroke="#ffffff0a" stroke-width="1"/>

  <!-- Main bar (duration from start to tag/today) -->
  <rect x="751" y="811" width="117" height="10" fill="#f59e0b" rx="5" opacity="0.5" filter="url(#shadow)"/>

  <!-- WIP dashed border -->
  <rect x="751" y="811" width="117" height="10" fill="none" stroke="#f59e0b" stroke-width="1.5" stroke-dasharray="4 3" rx="5" opacity="0.9"/>

  <!-- Start dot -->
  <circle cx="751" cy="816" r="5" fill="#f59e0b" stroke="#0f0f17" stroke-width="2"/>

  <!-- End dot / tag badge -->
  <!-- WIP badge -->
  <rect x="850" y="807" width="36" height="14" fill="#f59e0b33" rx="7" stroke="#f59e0b" stroke-width="1" stroke-dasharray="3 2"/>
  <text x="868" y="820" fill="#f59e0b" font-size="8" class="mono" text-anchor="middle">WIP</text>

  <!-- Start date label -->
  <text x="751" y="805" fill="#ffffff50" font-size="8" text-anchor="middle" class="mono">Mar 1, 2026</text>

  
  <!-- Repo: OneUrlPlus -->
  <!-- Row background on hover zone -->
  <rect x="0" y="854" width="900" height="68" fill="transparent" rx="4"/>

  <!-- Repo name (left label) -->
  <text x="190" y="882" fill="#ef4444" font-size="12" font-weight="600" text-anchor="end">OneUrlPlus</text>
  <text x="190" y="896" fill="#ffffff40" font-size="9" text-anchor="end" class="mono">Unknown · 1 commits</text>

  <!-- Timeline track (faint line) -->
  <line x1="200" y1="888" x2="880" y2="888" stroke="#ffffff0a" stroke-width="1"/>

  <!-- Main bar (duration from start to tag/today) -->
  <rect x="753" y="884" width="115" height="8" fill="#ef4444" rx="4" opacity="0.5" filter="url(#shadow)"/>

  <!-- WIP dashed border -->
  <rect x="753" y="884" width="115" height="8" fill="none" stroke="#ef4444" stroke-width="1.5" stroke-dasharray="4 3" rx="4" opacity="0.9"/>

  <!-- Start dot -->
  <circle cx="753" cy="888" r="5" fill="#ef4444" stroke="#0f0f17" stroke-width="2"/>

  <!-- End dot / tag badge -->
  <!-- WIP badge -->
  <rect x="850" y="879" width="36" height="14" fill="#ef444433" rx="7" stroke="#ef4444" stroke-width="1" stroke-dasharray="3 2"/>
  <text x="868" y="892" fill="#ef4444" font-size="8" class="mono" text-anchor="middle">WIP</text>

  <!-- Start date label -->
  <text x="753" y="878" fill="#ffffff50" font-size="8" text-anchor="middle" class="mono">Mar 2, 2026</text>

  
  <!-- Repo: Fun2Read -->
  <!-- Row background on hover zone -->
  <rect x="0" y="926" width="900" height="68" fill="#ffffff04" rx="4"/>

  <!-- Repo name (left label) -->
  <text x="190" y="954" fill="#8b5cf6" font-size="12" font-weight="600" text-anchor="end">Fun2Read</text>
  <text x="190" y="968" fill="#ffffff40" font-size="9" text-anchor="end" class="mono">JavaScript · 10 commits</text>

  <!-- Timeline track (faint line) -->
  <line x1="200" y1="960" x2="880" y2="960" stroke="#ffffff0a" stroke-width="1"/>

  <!-- Main bar (duration from start to tag/today) -->
  <rect x="753" y="954.5" width="115" height="11" fill="#8b5cf6" rx="5.5" opacity="0.5" filter="url(#shadow)"/>

  <!-- WIP dashed border -->
  <rect x="753" y="954.5" width="115" height="11" fill="none" stroke="#8b5cf6" stroke-width="1.5" stroke-dasharray="4 3" rx="5.5" opacity="0.9"/>

  <!-- Start dot -->
  <circle cx="753" cy="960" r="5" fill="#8b5cf6" stroke="#0f0f17" stroke-width="2"/>

  <!-- End dot / tag badge -->
  <!-- WIP badge -->
  <rect x="850" y="951" width="36" height="14" fill="#8b5cf633" rx="7" stroke="#8b5cf6" stroke-width="1" stroke-dasharray="3 2"/>
  <text x="868" y="964" fill="#8b5cf6" font-size="8" class="mono" text-anchor="middle">WIP</text>

  <!-- Start date label -->
  <text x="753" y="948.5" fill="#ffffff50" font-size="8" text-anchor="middle" class="mono">Mar 2, 2026</text>

  
  <!-- Repo: camp90 -->
  <!-- Row background on hover zone -->
  <rect x="0" y="998" width="900" height="68" fill="transparent" rx="4"/>

  <!-- Repo name (left label) -->
  <text x="190" y="1026" fill="#06b6d4" font-size="12" font-weight="600" text-anchor="end">camp90</text>
  <text x="190" y="1040" fill="#ffffff40" font-size="9" text-anchor="end" class="mono">HTML · 65 commits</text>

  <!-- Timeline track (faint line) -->
  <line x1="200" y1="1032" x2="880" y2="1032" stroke="#ffffff0a" stroke-width="1"/>

  <!-- Main bar (duration from start to tag/today) -->
  <rect x="790" y="1018" width="78" height="28" fill="#06b6d4" rx="14" opacity="0.5" filter="url(#shadow)"/>

  <!-- WIP dashed border -->
  <rect x="790" y="1018" width="78" height="28" fill="none" stroke="#06b6d4" stroke-width="1.5" stroke-dasharray="4 3" rx="14" opacity="0.9"/>

  <!-- Start dot -->
  <circle cx="790" cy="1032" r="5" fill="#06b6d4" stroke="#0f0f17" stroke-width="2"/>

  <!-- End dot / tag badge -->
  <!-- WIP badge -->
  <rect x="850" y="1023" width="36" height="14" fill="#06b6d433" rx="7" stroke="#06b6d4" stroke-width="1" stroke-dasharray="3 2"/>
  <text x="868" y="1036" fill="#06b6d4" font-size="8" class="mono" text-anchor="middle">WIP</text>

  <!-- Start date label -->
  <text x="790" y="1012" fill="#ffffff50" font-size="8" text-anchor="middle" class="mono">Apr 7, 2026</text>

  
  <!-- Repo: RandomNumberGen -->
  <!-- Row background on hover zone -->
  <rect x="0" y="1070" width="900" height="68" fill="#ffffff04" rx="4"/>

  <!-- Repo name (left label) -->
  <text x="190" y="1098" fill="#ec4899" font-size="12" font-weight="600" text-anchor="end">RandomNumberGen</text>
  <text x="190" y="1112" fill="#ffffff40" font-size="9" text-anchor="end" class="mono">JavaScript · 3 commits</text>

  <!-- Timeline track (faint line) -->
  <line x1="200" y1="1104" x2="880" y2="1104" stroke="#ffffff0a" stroke-width="1"/>

  <!-- Main bar (duration from start to tag/today) -->
  <rect x="848" y="1099.5" width="20" height="9" fill="#ec4899" rx="4.5" opacity="0.5" filter="url(#shadow)"/>

  <!-- WIP dashed border -->
  <rect x="848" y="1099.5" width="20" height="9" fill="none" stroke="#ec4899" stroke-width="1.5" stroke-dasharray="4 3" rx="4.5" opacity="0.9"/>

  <!-- Start dot -->
  <circle cx="848" cy="1104" r="5" fill="#ec4899" stroke="#0f0f17" stroke-width="2"/>

  <!-- End dot / tag badge -->
  <!-- WIP badge -->
  <rect x="850" y="1095" width="36" height="14" fill="#ec489933" rx="7" stroke="#ec4899" stroke-width="1" stroke-dasharray="3 2"/>
  <text x="868" y="1108" fill="#ec4899" font-size="8" class="mono" text-anchor="middle">WIP</text>

  <!-- Start date label -->
  <text x="848" y="1093.5" fill="#ffffff50" font-size="8" text-anchor="middle" class="mono">Jun 2, 2026</text>

  
  <!-- Repo: Slack-Agent-Builder-Hackathon -->
  <!-- Row background on hover zone -->
  <rect x="0" y="1142" width="900" height="68" fill="transparent" rx="4"/>

  <!-- Repo name (left label) -->
  <text x="190" y="1170" fill="#84cc16" font-size="12" font-weight="600" text-anchor="end">Slack-Agent-Builder-Hackathon</text>
  <text x="190" y="1184" fill="#ffffff40" font-size="9" text-anchor="end" class="mono">Unknown · 1 commits</text>

  <!-- Timeline track (faint line) -->
  <line x1="200" y1="1176" x2="880" y2="1176" stroke="#ffffff0a" stroke-width="1"/>

  <!-- Main bar (duration from start to tag/today) -->
  <rect x="853" y="1172" width="15" height="8" fill="#84cc16" rx="4" opacity="0.5" filter="url(#shadow)"/>

  <!-- WIP dashed border -->
  <rect x="853" y="1172" width="15" height="8" fill="none" stroke="#84cc16" stroke-width="1.5" stroke-dasharray="4 3" rx="4" opacity="0.9"/>

  <!-- Start dot -->
  <circle cx="853" cy="1176" r="5" fill="#84cc16" stroke="#0f0f17" stroke-width="2"/>

  <!-- End dot / tag badge -->
  <!-- WIP badge -->
  <rect x="850" y="1167" width="36" height="14" fill="#84cc1633" rx="7" stroke="#84cc16" stroke-width="1" stroke-dasharray="3 2"/>
  <text x="868" y="1180" fill="#84cc16" font-size="8" class="mono" text-anchor="middle">WIP</text>

  <!-- Start date label -->
  <text x="853" y="1166" fill="#ffffff50" font-size="8" text-anchor="middle" class="mono">Jun 7, 2026</text>

  
  <!-- Repo: Abba-Nahi-Maanenge -->
  <!-- Row background on hover zone -->
  <rect x="0" y="1214" width="900" height="68" fill="#ffffff04" rx="4"/>

  <!-- Repo name (left label) -->
  <text x="190" y="1242" fill="#6366f1" font-size="12" font-weight="600" text-anchor="end">Abba-Nahi-Maanenge</text>
  <text x="190" y="1256" fill="#ffffff40" font-size="9" text-anchor="end" class="mono">JavaScript · 26 commits</text>

  <!-- Timeline track (faint line) -->
  <line x1="200" y1="1248" x2="880" y2="1248" stroke="#ffffff0a" stroke-width="1"/>

  <!-- Main bar (duration from start to tag/today) -->
  <rect x="853" y="1240" width="15" height="16" fill="#6366f1" rx="8" opacity="0.5" filter="url(#shadow)"/>

  <!-- WIP dashed border -->
  <rect x="853" y="1240" width="15" height="16" fill="none" stroke="#6366f1" stroke-width="1.5" stroke-dasharray="4 3" rx="8" opacity="0.9"/>

  <!-- Start dot -->
  <circle cx="853" cy="1248" r="5" fill="#6366f1" stroke="#0f0f17" stroke-width="2"/>

  <!-- End dot / tag badge -->
  <!-- WIP badge -->
  <rect x="850" y="1239" width="36" height="14" fill="#6366f133" rx="7" stroke="#6366f1" stroke-width="1" stroke-dasharray="3 2"/>
  <text x="868" y="1252" fill="#6366f1" font-size="8" class="mono" text-anchor="middle">WIP</text>

  <!-- Start date label -->
  <text x="853" y="1234" fill="#ffffff50" font-size="8" text-anchor="middle" class="mono">Jun 7, 2026</text>

  
  <!-- Repo: Storage-engine-prototype- -->
  <!-- Row background on hover zone -->
  <rect x="0" y="1286" width="900" height="68" fill="transparent" rx="4"/>

  <!-- Repo name (left label) -->
  <text x="190" y="1314" fill="#10b981" font-size="12" font-weight="600" text-anchor="end">Storage-engine-prototype-</text>
  <text x="190" y="1328" fill="#ffffff40" font-size="9" text-anchor="end" class="mono">Unknown · 1 commits</text>

  <!-- Timeline track (faint line) -->
  <line x1="200" y1="1320" x2="880" y2="1320" stroke="#ffffff0a" stroke-width="1"/>

  <!-- Main bar (duration from start to tag/today) -->
  <rect x="859" y="1316" width="9" height="8" fill="#10b981" rx="4" opacity="0.5" filter="url(#shadow)"/>

  <!-- WIP dashed border -->
  <rect x="859" y="1316" width="9" height="8" fill="none" stroke="#10b981" stroke-width="1.5" stroke-dasharray="4 3" rx="4" opacity="0.9"/>

  <!-- Start dot -->
  <circle cx="859" cy="1320" r="5" fill="#10b981" stroke="#0f0f17" stroke-width="2"/>

  <!-- End dot / tag badge -->
  <!-- WIP badge -->
  <rect x="850" y="1311" width="36" height="14" fill="#10b98133" rx="7" stroke="#10b981" stroke-width="1" stroke-dasharray="3 2"/>
  <text x="868" y="1324" fill="#10b981" font-size="8" class="mono" text-anchor="middle">WIP</text>

  <!-- Start date label -->
  <text x="859" y="1310" fill="#ffffff50" font-size="8" text-anchor="middle" class="mono">Jun 12, 2026</text>

  
  <!-- Repo: Database-Modelling-Essentials -->
  <!-- Row background on hover zone -->
  <rect x="0" y="1358" width="900" height="68" fill="#ffffff04" rx="4"/>

  <!-- Repo name (left label) -->
  <text x="190" y="1386" fill="#f59e0b" font-size="12" font-weight="600" text-anchor="end">Database-Modelling-Essentials</text>
  <text x="190" y="1400" fill="#ffffff40" font-size="9" text-anchor="end" class="mono">Unknown · 1 commits</text>

  <!-- Timeline track (faint line) -->
  <line x1="200" y1="1392" x2="880" y2="1392" stroke="#ffffff0a" stroke-width="1"/>

  <!-- Main bar (duration from start to tag/today) -->
  <rect x="861" y="1388" width="7" height="8" fill="#f59e0b" rx="4" opacity="0.5" filter="url(#shadow)"/>

  <!-- WIP dashed border -->
  <rect x="861" y="1388" width="7" height="8" fill="none" stroke="#f59e0b" stroke-width="1.5" stroke-dasharray="4 3" rx="4" opacity="0.9"/>

  <!-- Start dot -->
  <circle cx="861" cy="1392" r="5" fill="#f59e0b" stroke="#0f0f17" stroke-width="2"/>

  <!-- End dot / tag badge -->
  <!-- WIP badge -->
  <rect x="850" y="1383" width="36" height="14" fill="#f59e0b33" rx="7" stroke="#f59e0b" stroke-width="1" stroke-dasharray="3 2"/>
  <text x="868" y="1396" fill="#f59e0b" font-size="8" class="mono" text-anchor="middle">WIP</text>

  <!-- Start date label -->
  <text x="861" y="1382" fill="#ffffff50" font-size="8" text-anchor="middle" class="mono">Jun 15, 2026</text>

  
  <!-- Repo: Ranko-AI -->
  <!-- Row background on hover zone -->
  <rect x="0" y="1430" width="900" height="68" fill="transparent" rx="4"/>

  <!-- Repo name (left label) -->
  <text x="190" y="1458" fill="#ef4444" font-size="12" font-weight="600" text-anchor="end">Ranko-AI</text>
  <text x="190" y="1472" fill="#ffffff40" font-size="9" text-anchor="end" class="mono">Unknown · 2 commits</text>

  <!-- Timeline track (faint line) -->
  <line x1="200" y1="1464" x2="880" y2="1464" stroke="#ffffff0a" stroke-width="1"/>

  <!-- Main bar (duration from start to tag/today) -->
  <rect x="864" y="1459.5" width="6" height="9" fill="#ef4444" rx="4.5" opacity="0.5" filter="url(#shadow)"/>

  <!-- WIP dashed border -->
  <rect x="864" y="1459.5" width="6" height="9" fill="none" stroke="#ef4444" stroke-width="1.5" stroke-dasharray="4 3" rx="4.5" opacity="0.9"/>

  <!-- Start dot -->
  <circle cx="864" cy="1464" r="5" fill="#ef4444" stroke="#0f0f17" stroke-width="2"/>

  <!-- End dot / tag badge -->
  <!-- WIP badge -->
  <rect x="850" y="1455" width="36" height="14" fill="#ef444433" rx="7" stroke="#ef4444" stroke-width="1" stroke-dasharray="3 2"/>
  <text x="868" y="1468" fill="#ef4444" font-size="8" class="mono" text-anchor="middle">WIP</text>

  <!-- Start date label -->
  <text x="864" y="1453.5" fill="#ffffff50" font-size="8" text-anchor="middle" class="mono">Jun 18, 2026</text>

  
  <!-- Legend -->
  <circle cx="210" cy="1545" r="5" fill="#6366f1" stroke="#0f0f17" stroke-width="2"/>
  <text x="220" y="1549" fill="#ffffff50" font-size="10">Start date</text>

  <circle cx="300" cy="1545" r="7" fill="#10b981" stroke="#0f0f17" stroke-width="2"/>
  <text x="315" y="1549" fill="#ffffff50" font-size="10">First tag (shipped 🚀)</text>

  <rect x="460" y="1539" width="30" height="10" fill="#ef444455" stroke="#ef4444" stroke-width="1" stroke-dasharray="3 2" rx="5"/>
  <text x="498" y="1549" fill="#ffffff50" font-size="10">Work In Progress</text>

  <text x="880" y="1549" fill="#ffffff20" font-size="9" class="mono" text-anchor="end">Bar height = commit count</text>
</svg>